<svg width="479" height="193" viewBox="0 0 479 193" fill="none" xmlns="http://www.w3.org/2000/svg">
<path d="M434.911 173.171H469.281V190C469.281 191.657 467.938 193 466.281 193H437.911C436.254 193 434.911 191.657 434.911 190V173.171Z" fill="#9C4D41"/>
<path d="M434.911 3C434.911 1.34314 436.254 0 437.911 0H466.281C467.938 0 469.281 1.34315 469.281 3V19.8288H434.911V3Z" fill="#9C4D41"/>
<path d="M9.25343 173.171H43.6233V190C43.6233 191.657 42.2801 193 40.6233 193H12.2534C10.5966 193 9.25343 191.657 9.25343 190V173.171Z" fill="#9C4D41"/>
<path d="M9.25343 3C9.25343 1.34314 10.5966 0 12.2534 0H40.6233C42.2801 0 43.6233 1.34315 43.6233 3V19.8288H9.25343V3Z" fill="#9C4D41"/>
<path d="M425.658 29.0822H52.8767L52.8767 34H425.658L425.658 29.0822Z" fill="#C07546"/>
<path fill-rule="evenodd" clip-rule="evenodd" d="M425.658 34L425.658 157.5H52.8767L52.8767 34H425.658Z" fill="#EEB07D"/>
<path d="M52.8767 162.596H425.658V157.5H52.8767V162.596Z" fill="#C07546"/>
<path d="M52.8767 22.8288C52.8767 21.1719 51.5336 19.8288 49.8767 19.8288H47V173.171H49.8767C51.5336 173.171 52.8767 171.828 52.8767 170.171V162.596V157.5L52.8767 34L52.8767 29.0822V22.8288Z" fill="#C07546"/>
<path fill-rule="evenodd" clip-rule="evenodd" d="M3 19.8288L3 173.171H47V19.8288H3Z" fill="#EEB07D"/>
<path d="M3 19.8288C1.34315 19.8288 0 21.1719 0 22.8288V170.171C0 171.828 1.34315 173.171 3 173.171L3 19.8288Z" fill="#C07546"/>
<path d="M428.658 19.8288C427.001 19.8288 425.658 21.1719 425.658 22.8288L425.658 29.0822L425.658 34L425.658 157.5V162.596L425.658 170.171C425.658 171.828 427.001 173.171 428.658 173.171H431.5V19.8288H428.658Z" fill="#C07546"/>
<path fill-rule="evenodd" clip-rule="evenodd" d="M475.534 173.171H431.5V19.8288H475.534V173.171Z" fill="#EEB07D"/>
<path d="M478.534 22.8288C478.534 21.1719 477.191 19.8288 475.534 19.8288V173.171C477.191 173.171 478.534 171.828 478.534 170.171V22.8288Z" fill="#C07546"/>
</svg>
