<svg width="73" height="73" viewBox="0 0 73 73" fill="none" xmlns="http://www.w3.org/2000/svg">
<path d="M16.6673 33.8126L16.6673 48.0803H23.8882V51.6473H27.4986L27.4986 55.2142L31.1091 55.2142V62.3481H34.7195V69.4819H38.3299V62.3481H41.9404L41.9404 55.2142H45.5508L45.5508 51.6473H49.1612V48.0803H56.3821V33.8126H59.9926V19.5449H66.7683L66.7683 5.27711L6.23171 5.27711L6.23171 19.5449H12.4634V33.8126H16.6673Z" fill="#EEB07D"/>
<path d="M66.7683 5.27711L66.7683 19.5449H73L73 5.27711H66.7683Z" fill="#9C4D41"/>
<path d="M6.23171 5.27711L66.7683 5.27711V-1.60933e-06L6.23171 -1.60933e-06V5.27711Z" fill="#9C4D41"/>
<path d="M59.9926 19.5449V33.8126H66.7683V19.5449H59.9926Z" fill="#9C4D41"/>
<path d="M56.3821 33.8126V48.0803H59.9926L59.9926 33.8126H56.3821Z" fill="#9C4D41"/>
<path d="M49.1612 48.0803V51.6473H56.3821V48.0803H49.1612Z" fill="#9C4D41"/>
<path d="M49.1612 51.6473H45.5508L45.5508 55.2142H49.1612V51.6473Z" fill="#9C4D41"/>
<path d="M45.5508 55.2142H41.9404L41.9404 62.3481H45.5508V55.2142Z" fill="#9C4D41"/>
<path d="M41.9404 62.3481H38.3299V69.4819H41.9404L41.9404 62.3481Z" fill="#9C4D41"/>
<path d="M38.3299 69.4819H34.7195V73H38.3299V69.4819Z" fill="#9C4D41"/>
<path d="M34.7195 62.3481H31.1091V69.4819H34.7195V62.3481Z" fill="#9C4D41"/>
<path d="M31.1091 55.2142L27.4986 55.2142V62.3481H31.1091V55.2142Z" fill="#9C4D41"/>
<path d="M27.4986 51.6473H23.8882V55.2142H27.4986L27.4986 51.6473Z" fill="#9C4D41"/>
<path d="M23.8882 51.6473V48.0803H16.6673V51.6473H23.8882Z" fill="#9C4D41"/>
<path d="M16.6673 48.0803L16.6673 33.8126H12.4634L12.4634 48.0803H16.6673Z" fill="#9C4D41"/>
<path d="M12.4634 33.8126V19.5449H6.23171V33.8126H12.4634Z" fill="#9C4D41"/>
<path d="M6.23171 19.5449L6.23171 5.27711H1.19209e-06L1.19209e-06 19.5449H6.23171Z" fill="#9C4D41"/>
</svg>
