<svg width="73" height="73" viewBox="0 0 73 73" fill="none" xmlns="http://www.w3.org/2000/svg">
<path d="M56.3327 39.1874V24.9197H49.1118V21.3527H45.5014L45.5014 17.7858H41.8909V10.6519H38.2805V3.51807H34.6701V10.6519H31.0596L31.0596 17.7858H27.4492L27.4492 21.3527H23.8388V24.9197H16.6179V39.1874H13.0074V53.4551H6.23171V67.7229H66.7683V53.4551H60.5366V39.1874H56.3327Z" fill="#EEB07D"/>
<path d="M6.23171 67.7229V53.4551H0V67.7229H6.23171Z" fill="#9C4D41"/>
<path d="M66.7683 67.7229H6.23171V73H66.7683V67.7229Z" fill="#9C4D41"/>
<path d="M13.0074 53.4551V39.1874H6.23171V53.4551H13.0074Z" fill="#9C4D41"/>
<path d="M16.6179 39.1874V24.9197H13.0074V39.1874H16.6179Z" fill="#9C4D41"/>
<path d="M23.8388 24.9197V21.3527H16.6179V24.9197H23.8388Z" fill="#9C4D41"/>
<path d="M23.8388 21.3527H27.4492L27.4492 17.7858H23.8388V21.3527Z" fill="#9C4D41"/>
<path d="M27.4492 17.7858H31.0596L31.0596 10.6519H27.4492V17.7858Z" fill="#9C4D41"/>
<path d="M31.0596 10.6519H34.6701V3.51807H31.0596L31.0596 10.6519Z" fill="#9C4D41"/>
<path d="M34.6701 3.51807H38.2805V0H34.6701V3.51807Z" fill="#9C4D41"/>
<path d="M38.2805 10.6519H41.8909V3.51807H38.2805V10.6519Z" fill="#9C4D41"/>
<path d="M41.8909 17.7858H45.5014V10.6519H41.8909V17.7858Z" fill="#9C4D41"/>
<path d="M45.5014 21.3527H49.1118V17.7858H45.5014L45.5014 21.3527Z" fill="#9C4D41"/>
<path d="M49.1118 21.3527V24.9197H56.3327V21.3527H49.1118Z" fill="#9C4D41"/>
<path d="M56.3327 24.9197V39.1874H60.5366V24.9197H56.3327Z" fill="#9C4D41"/>
<path d="M60.5366 39.1874V53.4551H66.7683V39.1874H60.5366Z" fill="#9C4D41"/>
<path d="M66.7683 53.4551V67.7229H73V53.4551H66.7683Z" fill="#9C4D41"/>
</svg>
